<svg xmlns="http://www.w3.org/2000/svg" viewBox="0 0 200 200"><ellipse cx="100" cy="60" rx="55" ry="30" fill="#00A6D6" stroke="#1D3F73" stroke-width="3"/><path d="M60 80 Q70 65 85 80 Q100 65 115 80 Q130 65 140 80" fill="none" stroke="#1D3F73" stroke-width="3" stroke-linecap="round"/><path d="M70 95 Q80 80 95 95 Q110 80 125 95 Q135 85 140 90" fill="none" stroke="#1D3F73" stroke-width="3" stroke-linecap="round"/><path d="M75 110 Q90 95 100 110 Q115 95 130 110" fill="none" stroke="#1D3F73" stroke-width="3" stroke-linecap="round"/><line x1="85" y1="120" x2="85" y2="140" stroke="#00A6D6" stroke-width="2.5" stroke-linecap="round"/><line x1="100" y1="115" x2="100" y2="145" stroke="#00A6D6" stroke-width="2.5" stroke-linecap="round"/><line x1="115" y1="120" x2="115" y2="140" stroke="#00A6D6" stroke-width="2.5" stroke-linecap="round"/><line x1="90" y1="40" x2="95" y2="25" stroke="#FFC400" stroke-width="2.5" stroke-linecap="round"/><line x1="110" y1="35" x2="115" y2="20" stroke="#FFC400" stroke-width="2.5" stroke-linecap="round"/></svg>